<?xml version="1.0" encoding="UTF-8"?>
<svg id="Layer_1" data-name="Layer 1" xmlns="http://www.w3.org/2000/svg" viewBox="0 0 160 160">
  <defs>
    <style>
      .cls-1 {
        fill: #7cb544;
      }

      .cls-2 {
        fill: #6b6c6b;
      }
    </style>
  </defs>
  <path class="cls-2" d="M102.14,78.95l-9.64-9.64c-.57-.57-1.49-.57-2.06,0l-32.62,32.62c-.57.57-.57,1.5,0,2.07l9.64,9.64c.57.57,1.49.57,2.06,0l32.62-32.62c.57-.57.57-1.5,0-2.07h0Z"/>
  <path class="cls-2" d="M115.91,92.72l-9.64-9.64c-.57-.57-1.49-.57-2.06,0l-32.62,32.62c-.57.57-.57,1.5,0,2.07l9.64,9.64c.57.57,1.49.57,2.07,0l32.62-32.62c.57-.57.57-1.5,0-2.06h0Z"/>
  <path class="cls-1" d="M88.41,65.22l-11.75-11.75-20.87-20.87c-.57-.57-1.49-.57-2.06,0l-9.64,9.64c-.57.57-.57,1.5,0,2.06l21.95,21.95-21.95,21.95c-.57.57-.57,1.49,0,2.06l9.64,9.64c.57.57,1.49.57,2.06,0l22.98-22.98,9.64-9.64c.57-.57.57-1.5,0-2.07h0Z"/>
</svg>